<svg width="61" height="60" viewBox="0 0 61 60" fill="none" xmlns="http://www.w3.org/2000/svg">
    <path d="M42.3728 43.5929L44.207 41.7594C46.0653 39.9743 48.5511 38.9852 51.1334 39.0575C56.2015 39.1782 60.3767 35.1494 60.4974 30.1075C60.618 25.0414 56.5877 20.8438 51.5437 20.7473C51.3989 20.7473 51.2782 20.7473 51.1334 20.7473C48.5511 20.8196 46.0653 19.8305 44.2311 18.0453L42.3969 16.2119C40.611 14.3543 39.6215 11.8695 39.6698 9.28825C39.718 4.22216 35.6394 0.0486723 30.5713 0.000423861C25.5032 -0.0478246 21.328 4.02917 21.2797 9.09525C21.2315 14.1613 25.3101 18.3348 30.3782 18.3831C30.4506 18.3831 30.523 18.3831 30.5954 18.3831C33.1778 18.3107 35.6635 19.2757 37.4977 21.085L39.2836 22.9184C41.1178 24.8001 42.1073 27.3332 42.059 29.9627V30.0351C42.1073 32.6646 41.1178 35.1977 39.2836 37.0552L37.546 38.7439C35.6636 40.5774 33.1295 41.5665 30.523 41.5182H30.4506C27.82 41.5665 25.286 40.5774 23.4035 38.7439L21.5935 36.9346C19.8076 35.077 18.8181 32.5922 18.8905 30.0351C18.9387 24.969 14.8842 20.7955 9.79199 20.7473C4.72386 20.699 0.548694 24.7519 0.500427 29.8421C0.452159 34.9323 4.50666 39.0817 9.59892 39.1299C9.67132 39.1299 9.74372 39.1299 9.81612 39.1299C12.3985 39.0575 14.8842 40.0225 16.7184 41.8318L18.6009 43.7135C20.3868 45.5711 21.3763 48.0559 21.3039 50.6372C21.1832 55.7033 25.2136 59.8767 30.2817 59.9974C35.3498 60.118 39.5491 56.0892 39.6456 51.0473C39.6456 50.9025 39.6456 50.7819 39.6456 50.6372C39.5974 47.9594 40.5627 45.4505 42.3728 43.5929Z" fill="#233D90"/>
</svg>
